<mxfile host="app.diagrams.net" modified="2021-01-04T06:53:20.079Z" agent="5.0 (Macintosh; Intel Mac OS X 10_14_6) AppleWebKit/605.1.15 (KHTML, like Gecko) Version/13.1.1 Safari/605.1.15" etag="ot932WR7qc2h6mj0_R4h" version="13.8.1" type="github">
  <diagram id="064U24dNg5lmaxuExHQ8" name="Page-1">
    <mxGraphModel dx="1183" dy="794" grid="0" gridSize="10" guides="1" tooltips="1" connect="1" arrows="1" fold="1" page="1" pageScale="1" pageWidth="827" pageHeight="1169" math="0" shadow="0">
      <root>
        <mxCell id="0" />
        <mxCell id="1" parent="0" />
        <mxCell id="FwG64wvJ83UYjivsR1qE-43" value="" style="group" parent="1" vertex="1" connectable="0">
          <mxGeometry x="342" y="29" width="410" height="80" as="geometry" />
        </mxCell>
        <mxCell id="FwG64wvJ83UYjivsR1qE-1" value="" style="rounded=0;whiteSpace=wrap;html=1;" parent="FwG64wvJ83UYjivsR1qE-43" vertex="1">
          <mxGeometry width="410" height="80" as="geometry" />
        </mxCell>
        <mxCell id="FwG64wvJ83UYjivsR1qE-2" value="query" style="rounded=0;whiteSpace=wrap;html=1;" parent="FwG64wvJ83UYjivsR1qE-43" vertex="1">
          <mxGeometry x="13" y="10" width="120" height="60" as="geometry" />
        </mxCell>
        <mxCell id="FwG64wvJ83UYjivsR1qE-3" value="外流clicked视频" style="rounded=0;whiteSpace=wrap;html=1;" parent="FwG64wvJ83UYjivsR1qE-43" vertex="1">
          <mxGeometry x="143" y="10" width="120" height="60" as="geometry" />
        </mxCell>
        <mxCell id="FwG64wvJ83UYjivsR1qE-4" value="内流视频序列" style="rounded=0;whiteSpace=wrap;html=1;" parent="FwG64wvJ83UYjivsR1qE-43" vertex="1">
          <mxGeometry x="277" y="10" width="120" height="60" as="geometry" />
        </mxCell>
        <mxCell id="FwG64wvJ83UYjivsR1qE-44" value="" style="group" parent="1" vertex="1" connectable="0">
          <mxGeometry x="50" y="140" width="240" height="340" as="geometry" />
        </mxCell>
        <mxCell id="FwG64wvJ83UYjivsR1qE-24" value="" style="group" parent="FwG64wvJ83UYjivsR1qE-44" vertex="1" connectable="0">
          <mxGeometry y="280" width="240" height="60" as="geometry" />
        </mxCell>
        <mxCell id="FwG64wvJ83UYjivsR1qE-25" value="" style="rounded=0;whiteSpace=wrap;html=1;" parent="FwG64wvJ83UYjivsR1qE-24" vertex="1">
          <mxGeometry width="240" height="60" as="geometry" />
        </mxCell>
        <mxCell id="FwG64wvJ83UYjivsR1qE-26" value="q&lt;sub&gt;i&lt;/sub&gt;" style="rounded=0;whiteSpace=wrap;html=1;" parent="FwG64wvJ83UYjivsR1qE-24" vertex="1">
          <mxGeometry x="5" y="10" width="70" height="40" as="geometry" />
        </mxCell>
        <mxCell id="FwG64wvJ83UYjivsR1qE-27" value="Do&lt;sub&gt;i&lt;/sub&gt;" style="rounded=0;whiteSpace=wrap;html=1;" parent="FwG64wvJ83UYjivsR1qE-24" vertex="1">
          <mxGeometry x="85" y="10" width="70" height="40" as="geometry" />
        </mxCell>
        <mxCell id="FwG64wvJ83UYjivsR1qE-28" value="Di&lt;sub&gt;i,{1...mi}&lt;/sub&gt;" style="rounded=0;whiteSpace=wrap;html=1;" parent="FwG64wvJ83UYjivsR1qE-24" vertex="1">
          <mxGeometry x="165" y="10" width="70" height="40" as="geometry" />
        </mxCell>
        <mxCell id="FwG64wvJ83UYjivsR1qE-29" value="" style="group" parent="FwG64wvJ83UYjivsR1qE-44" vertex="1" connectable="0">
          <mxGeometry y="190" width="240" height="60" as="geometry" />
        </mxCell>
        <mxCell id="FwG64wvJ83UYjivsR1qE-30" value="" style="rounded=0;whiteSpace=wrap;html=1;" parent="FwG64wvJ83UYjivsR1qE-29" vertex="1">
          <mxGeometry width="240" height="60" as="geometry" />
        </mxCell>
        <mxCell id="FwG64wvJ83UYjivsR1qE-31" value="q&lt;font size=&quot;1&quot;&gt;&lt;sub&gt;2&lt;/sub&gt;&lt;/font&gt;" style="rounded=0;whiteSpace=wrap;html=1;" parent="FwG64wvJ83UYjivsR1qE-29" vertex="1">
          <mxGeometry x="5" y="10" width="70" height="40" as="geometry" />
        </mxCell>
        <mxCell id="FwG64wvJ83UYjivsR1qE-32" value="Do&lt;font size=&quot;1&quot;&gt;&lt;sub&gt;2&lt;/sub&gt;&lt;/font&gt;" style="rounded=0;whiteSpace=wrap;html=1;" parent="FwG64wvJ83UYjivsR1qE-29" vertex="1">
          <mxGeometry x="85" y="10" width="70" height="40" as="geometry" />
        </mxCell>
        <mxCell id="FwG64wvJ83UYjivsR1qE-33" value="Di&lt;sub&gt;2,{1...m2}&lt;/sub&gt;" style="rounded=0;whiteSpace=wrap;html=1;" parent="FwG64wvJ83UYjivsR1qE-29" vertex="1">
          <mxGeometry x="165" y="10" width="70" height="40" as="geometry" />
        </mxCell>
        <mxCell id="FwG64wvJ83UYjivsR1qE-34" value="" style="group;container=1;" parent="FwG64wvJ83UYjivsR1qE-44" vertex="1" connectable="0">
          <mxGeometry width="240" height="180" as="geometry" />
        </mxCell>
        <mxCell id="FwG64wvJ83UYjivsR1qE-35" value="" style="rounded=0;whiteSpace=wrap;html=1;" parent="FwG64wvJ83UYjivsR1qE-34" vertex="1">
          <mxGeometry width="240" height="180" as="geometry" />
        </mxCell>
        <mxCell id="FwG64wvJ83UYjivsR1qE-36" value="q&lt;span style=&quot;font-size: 9px&quot;&gt;&lt;sub&gt;1&lt;/sub&gt;&lt;/span&gt;" style="rounded=0;whiteSpace=wrap;html=1;" parent="FwG64wvJ83UYjivsR1qE-34" vertex="1">
          <mxGeometry x="5" y="10" width="70" height="40" as="geometry" />
        </mxCell>
        <mxCell id="FwG64wvJ83UYjivsR1qE-37" value="Do&lt;span style=&quot;font-size: 9px&quot;&gt;&lt;sub&gt;1&lt;/sub&gt;&lt;/span&gt;" style="rounded=0;whiteSpace=wrap;html=1;" parent="FwG64wvJ83UYjivsR1qE-34" vertex="1">
          <mxGeometry x="85" y="10" width="70" height="40" as="geometry" />
        </mxCell>
        <mxCell id="FwG64wvJ83UYjivsR1qE-38" value="Di&lt;font size=&quot;1&quot;&gt;&lt;sub&gt;1,1&lt;/sub&gt;&lt;/font&gt;" style="rounded=0;whiteSpace=wrap;html=1;" parent="FwG64wvJ83UYjivsR1qE-34" vertex="1">
          <mxGeometry x="165" y="10" width="70" height="40" as="geometry" />
        </mxCell>
        <mxCell id="FwG64wvJ83UYjivsR1qE-39" value="Di&lt;font size=&quot;1&quot;&gt;&lt;sub&gt;1,2&lt;/sub&gt;&lt;/font&gt;" style="rounded=0;whiteSpace=wrap;html=1;" parent="FwG64wvJ83UYjivsR1qE-34" vertex="1">
          <mxGeometry x="165" y="60" width="70" height="40" as="geometry" />
        </mxCell>
        <mxCell id="FwG64wvJ83UYjivsR1qE-40" value="Di&lt;font size=&quot;1&quot;&gt;&lt;sub&gt;1,m&lt;/sub&gt;&lt;/font&gt;" style="rounded=0;whiteSpace=wrap;html=1;" parent="FwG64wvJ83UYjivsR1qE-34" vertex="1">
          <mxGeometry x="165" y="130" width="70" height="40" as="geometry" />
        </mxCell>
        <mxCell id="FwG64wvJ83UYjivsR1qE-42" value="" style="endArrow=none;dashed=1;html=1;dashPattern=1 3;strokeWidth=2;entryX=0.5;entryY=1;entryDx=0;entryDy=0;exitX=0.5;exitY=0;exitDx=0;exitDy=0;" parent="FwG64wvJ83UYjivsR1qE-34" source="FwG64wvJ83UYjivsR1qE-40" target="FwG64wvJ83UYjivsR1qE-39" edge="1">
          <mxGeometry width="50" height="50" relative="1" as="geometry">
            <mxPoint x="130" y="290" as="sourcePoint" />
            <mxPoint x="130" y="260" as="targetPoint" />
          </mxGeometry>
        </mxCell>
        <mxCell id="FwG64wvJ83UYjivsR1qE-41" value="" style="endArrow=none;dashed=1;html=1;dashPattern=1 3;strokeWidth=2;entryX=0.5;entryY=1;entryDx=0;entryDy=0;" parent="FwG64wvJ83UYjivsR1qE-44" source="FwG64wvJ83UYjivsR1qE-25" target="FwG64wvJ83UYjivsR1qE-30" edge="1">
          <mxGeometry width="50" height="50" relative="1" as="geometry">
            <mxPoint x="420" y="300" as="sourcePoint" />
            <mxPoint x="470" y="250" as="targetPoint" />
          </mxGeometry>
        </mxCell>
        <mxCell id="FwG64wvJ83UYjivsR1qE-62" style="edgeStyle=orthogonalEdgeStyle;rounded=0;orthogonalLoop=1;jettySize=auto;html=1;exitX=0.5;exitY=1;exitDx=0;exitDy=0;entryX=0.5;entryY=0;entryDx=0;entryDy=0;" parent="1" source="FwG64wvJ83UYjivsR1qE-45" target="FwG64wvJ83UYjivsR1qE-61" edge="1">
          <mxGeometry relative="1" as="geometry" />
        </mxCell>
        <mxCell id="FwG64wvJ83UYjivsR1qE-45" value="query" style="rounded=0;whiteSpace=wrap;html=1;" parent="1" vertex="1">
          <mxGeometry x="340" y="140" width="120" height="60" as="geometry" />
        </mxCell>
        <mxCell id="FwG64wvJ83UYjivsR1qE-47" value="query_embedding" style="rounded=0;whiteSpace=wrap;html=1;" parent="1" vertex="1">
          <mxGeometry x="340" y="310" width="120" height="60" as="geometry" />
        </mxCell>
        <mxCell id="FwG64wvJ83UYjivsR1qE-59" style="edgeStyle=orthogonalEdgeStyle;rounded=0;orthogonalLoop=1;jettySize=auto;html=1;exitX=0.5;exitY=1;exitDx=0;exitDy=0;entryX=0.5;entryY=0;entryDx=0;entryDy=0;" parent="1" source="FwG64wvJ83UYjivsR1qE-50" target="FwG64wvJ83UYjivsR1qE-58" edge="1">
          <mxGeometry relative="1" as="geometry" />
        </mxCell>
        <mxCell id="FwG64wvJ83UYjivsR1qE-50" value="inner note" style="rounded=0;whiteSpace=wrap;html=1;" parent="1" vertex="1">
          <mxGeometry x="490" y="140" width="120" height="60" as="geometry" />
        </mxCell>
        <mxCell id="FwG64wvJ83UYjivsR1qE-51" value="note_embedding" style="rounded=0;whiteSpace=wrap;html=1;" parent="1" vertex="1">
          <mxGeometry x="490" y="310" width="120" height="60" as="geometry" />
        </mxCell>
        <mxCell id="FwG64wvJ83UYjivsR1qE-52" value="Loss(q, Di)" style="rounded=0;whiteSpace=wrap;html=1;" parent="1" vertex="1">
          <mxGeometry x="340" y="420" width="120" height="60" as="geometry" />
        </mxCell>
        <mxCell id="FwG64wvJ83UYjivsR1qE-55" value="" style="endArrow=classic;html=1;exitX=0.5;exitY=1;exitDx=0;exitDy=0;entryX=0.5;entryY=0;entryDx=0;entryDy=0;" parent="1" source="FwG64wvJ83UYjivsR1qE-51" target="FwG64wvJ83UYjivsR1qE-52" edge="1">
          <mxGeometry width="50" height="50" relative="1" as="geometry">
            <mxPoint x="650" y="430" as="sourcePoint" />
            <mxPoint x="700" y="380" as="targetPoint" />
          </mxGeometry>
        </mxCell>
        <mxCell id="FwG64wvJ83UYjivsR1qE-56" value="" style="endArrow=classic;html=1;exitX=0.5;exitY=1;exitDx=0;exitDy=0;entryX=0.5;entryY=0;entryDx=0;entryDy=0;" parent="1" source="FwG64wvJ83UYjivsR1qE-47" target="FwG64wvJ83UYjivsR1qE-52" edge="1">
          <mxGeometry width="50" height="50" relative="1" as="geometry">
            <mxPoint x="560" y="380" as="sourcePoint" />
            <mxPoint x="470" y="410" as="targetPoint" />
          </mxGeometry>
        </mxCell>
        <mxCell id="FwG64wvJ83UYjivsR1qE-60" style="edgeStyle=orthogonalEdgeStyle;rounded=0;orthogonalLoop=1;jettySize=auto;html=1;exitX=0.5;exitY=1;exitDx=0;exitDy=0;entryX=0.5;entryY=0;entryDx=0;entryDy=0;" parent="1" source="FwG64wvJ83UYjivsR1qE-58" target="FwG64wvJ83UYjivsR1qE-51" edge="1">
          <mxGeometry relative="1" as="geometry" />
        </mxCell>
        <mxCell id="FwG64wvJ83UYjivsR1qE-58" value="ID embedding" style="rounded=0;whiteSpace=wrap;html=1;" parent="1" vertex="1">
          <mxGeometry x="490" y="230" width="120" height="60" as="geometry" />
        </mxCell>
        <mxCell id="FwG64wvJ83UYjivsR1qE-63" style="edgeStyle=orthogonalEdgeStyle;rounded=0;orthogonalLoop=1;jettySize=auto;html=1;exitX=0.5;exitY=1;exitDx=0;exitDy=0;entryX=0.5;entryY=0;entryDx=0;entryDy=0;" parent="1" source="FwG64wvJ83UYjivsR1qE-61" target="FwG64wvJ83UYjivsR1qE-47" edge="1">
          <mxGeometry relative="1" as="geometry" />
        </mxCell>
        <mxCell id="FwG64wvJ83UYjivsR1qE-61" value="textCNN" style="rounded=0;whiteSpace=wrap;html=1;" parent="1" vertex="1">
          <mxGeometry x="340" y="230" width="120" height="60" as="geometry" />
        </mxCell>
        <mxCell id="FwG64wvJ83UYjivsR1qE-64" style="edgeStyle=orthogonalEdgeStyle;rounded=0;orthogonalLoop=1;jettySize=auto;html=1;exitX=0.5;exitY=1;exitDx=0;exitDy=0;entryX=0.5;entryY=0;entryDx=0;entryDy=0;" parent="1" source="FwG64wvJ83UYjivsR1qE-65" target="FwG64wvJ83UYjivsR1qE-68" edge="1">
          <mxGeometry relative="1" as="geometry" />
        </mxCell>
        <mxCell id="FwG64wvJ83UYjivsR1qE-65" value="outer note" style="rounded=0;whiteSpace=wrap;html=1;" parent="1" vertex="1">
          <mxGeometry x="640" y="140" width="120" height="60" as="geometry" />
        </mxCell>
        <mxCell id="FwG64wvJ83UYjivsR1qE-71" style="edgeStyle=orthogonalEdgeStyle;rounded=0;orthogonalLoop=1;jettySize=auto;html=1;exitX=0.5;exitY=1;exitDx=0;exitDy=0;entryX=0.5;entryY=0;entryDx=0;entryDy=0;" parent="1" source="FwG64wvJ83UYjivsR1qE-66" target="FwG64wvJ83UYjivsR1qE-70" edge="1">
          <mxGeometry relative="1" as="geometry" />
        </mxCell>
        <mxCell id="FwG64wvJ83UYjivsR1qE-66" value="note_embedding" style="rounded=0;whiteSpace=wrap;html=1;" parent="1" vertex="1">
          <mxGeometry x="640" y="310" width="120" height="60" as="geometry" />
        </mxCell>
        <mxCell id="FwG64wvJ83UYjivsR1qE-67" style="edgeStyle=orthogonalEdgeStyle;rounded=0;orthogonalLoop=1;jettySize=auto;html=1;exitX=0.5;exitY=1;exitDx=0;exitDy=0;entryX=0.5;entryY=0;entryDx=0;entryDy=0;" parent="1" source="FwG64wvJ83UYjivsR1qE-68" target="FwG64wvJ83UYjivsR1qE-66" edge="1">
          <mxGeometry relative="1" as="geometry" />
        </mxCell>
        <mxCell id="FwG64wvJ83UYjivsR1qE-68" value="ID embedding" style="rounded=0;whiteSpace=wrap;html=1;" parent="1" vertex="1">
          <mxGeometry x="640" y="230" width="120" height="60" as="geometry" />
        </mxCell>
        <mxCell id="FwG64wvJ83UYjivsR1qE-69" value="Loss(q, Do)" style="rounded=0;whiteSpace=wrap;html=1;" parent="1" vertex="1">
          <mxGeometry x="490" y="420" width="120" height="60" as="geometry" />
        </mxCell>
        <mxCell id="FwG64wvJ83UYjivsR1qE-70" value="Loss(Do, Di)" style="rounded=0;whiteSpace=wrap;html=1;" parent="1" vertex="1">
          <mxGeometry x="640" y="420" width="120" height="60" as="geometry" />
        </mxCell>
        <mxCell id="FwG64wvJ83UYjivsR1qE-72" value="" style="endArrow=classic;html=1;exitX=0.5;exitY=1;exitDx=0;exitDy=0;entryX=0.5;entryY=0;entryDx=0;entryDy=0;" parent="1" source="FwG64wvJ83UYjivsR1qE-51" target="FwG64wvJ83UYjivsR1qE-70" edge="1">
          <mxGeometry width="50" height="50" relative="1" as="geometry">
            <mxPoint x="560" y="380" as="sourcePoint" />
            <mxPoint x="410" y="430" as="targetPoint" />
          </mxGeometry>
        </mxCell>
        <mxCell id="FwG64wvJ83UYjivsR1qE-74" value="" style="endArrow=classic;html=1;exitX=0.5;exitY=1;exitDx=0;exitDy=0;entryX=0.5;entryY=0;entryDx=0;entryDy=0;" parent="1" source="FwG64wvJ83UYjivsR1qE-47" target="FwG64wvJ83UYjivsR1qE-69" edge="1">
          <mxGeometry width="50" height="50" relative="1" as="geometry">
            <mxPoint x="560" y="380" as="sourcePoint" />
            <mxPoint x="710" y="430" as="targetPoint" />
          </mxGeometry>
        </mxCell>
        <mxCell id="FwG64wvJ83UYjivsR1qE-75" value="" style="endArrow=classic;html=1;exitX=0.5;exitY=1;exitDx=0;exitDy=0;entryX=0.5;entryY=0;entryDx=0;entryDy=0;" parent="1" source="FwG64wvJ83UYjivsR1qE-66" target="FwG64wvJ83UYjivsR1qE-69" edge="1">
          <mxGeometry width="50" height="50" relative="1" as="geometry">
            <mxPoint x="560" y="380" as="sourcePoint" />
            <mxPoint x="410" y="430" as="targetPoint" />
          </mxGeometry>
        </mxCell>
        <mxCell id="7Q8zXDxaI5RAGU5R24t1-2" value="Sample" style="text;html=1;strokeColor=none;fillColor=none;align=center;verticalAlign=middle;whiteSpace=wrap;rounded=0;" vertex="1" parent="1">
          <mxGeometry x="361" y="12" width="40" height="20" as="geometry" />
        </mxCell>
        <mxCell id="7Q8zXDxaI5RAGU5R24t1-3" value="Loss" style="text;html=1;strokeColor=none;fillColor=none;align=center;verticalAlign=middle;whiteSpace=wrap;rounded=0;" vertex="1" parent="1">
          <mxGeometry x="356" y="118" width="40" height="20" as="geometry" />
        </mxCell>
      </root>
    </mxGraphModel>
  </diagram>
</mxfile>
